<svg width="34" height="24" viewBox="0 0 34 24" fill="none" xmlns="http://www.w3.org/2000/svg">
<path d="M16.7996 23.9999C13.366 23.9999 9.941 22.9835 6.52465 20.9506C5.99566 20.6284 5.55899 20.1749 5.25705 19.6341C4.95511 19.0933 4.79817 18.4836 4.80147 17.8642V10.8028C4.80147 10.4845 4.92792 10.1792 5.15299 9.95417C5.37806 9.7291 5.68332 9.60265 6.00162 9.60265C6.31972 9.60295 6.6247 9.72953 6.84952 9.95456C7.07435 10.1796 7.20064 10.4847 7.20064 10.8028V17.8642C7.19807 18.0676 7.24718 18.2683 7.34339 18.4475C7.43959 18.6268 7.57973 18.7786 7.75066 18.8889C13.8403 22.5197 19.76 22.5197 25.8451 18.8889C26.0167 18.7791 26.1574 18.6274 26.2541 18.4481C26.3507 18.2688 26.4 18.0679 26.3974 17.8642V10.8028C26.3924 10.6422 26.4198 10.4822 26.4779 10.3324C26.536 10.1825 26.6236 10.0459 26.7354 9.93052C26.8473 9.81516 26.9812 9.72345 27.1292 9.66082C27.2772 9.59819 27.4363 9.56592 27.597 9.56592C27.7576 9.56592 27.9167 9.59819 28.0647 9.66082C28.2127 9.72345 28.3466 9.81516 28.4585 9.93052C28.5704 10.0459 28.6579 10.1825 28.716 10.3324C28.7741 10.4822 28.8015 10.6422 28.7965 10.8028V17.8642C28.7998 18.4837 28.6428 19.0935 28.3406 19.6344C28.0385 20.1752 27.6015 20.6286 27.0722 20.9506C23.6634 22.9835 20.2392 23.9999 16.7996 23.9999Z" fill="white"/>
<path d="M16.7976 16.8009C16.6234 16.8003 16.4515 16.762 16.2937 16.6884L0.696243 9.48976C0.488235 9.39353 0.312128 9.23975 0.188747 9.04661C0.0653661 8.85346 -0.000130171 8.62903 1.94232e-07 8.39984C-5.27448e-05 8.17081 0.0654896 7.94656 0.188874 7.75361C0.312259 7.56066 0.488324 7.40708 0.696243 7.31105L16.2937 0.11242C16.4521 0.0383756 16.6249 0 16.7998 0C16.9747 0 17.1475 0.0383756 17.306 0.11242L32.9023 7.31105C33.1102 7.4072 33.2863 7.56087 33.4097 7.75391C33.5332 7.94695 33.5988 8.17128 33.5988 8.4004C33.5988 8.62952 33.5332 8.85386 33.4097 9.04689C33.2863 9.23993 33.1102 9.39361 32.9023 9.48976L17.3015 16.6884C17.1436 16.7619 16.9717 16.8002 16.7976 16.8009ZM4.06273 8.40209L16.7976 14.2791L29.5313 8.40209L16.7976 2.52621L4.06273 8.40209Z" fill="white"/>
</svg>
