<svg width="569" height="461" viewBox="0 0 569 461" fill="none" xmlns="http://www.w3.org/2000/svg">
<path fill-rule="evenodd" clip-rule="evenodd" d="M0 346.24V460.82H128.16V326.37L0 346.24ZM3.58 349.3L124.58 330.54V457.25H3.58V349.3Z" fill="#006699"/>
<path fill-rule="evenodd" clip-rule="evenodd" d="M127.7 459.03H128.24V327.14H127.7V459.03ZM109.7 459.03H110.24V330.08H109.7V459.03ZM91.7 459.03H92.24V333.03H91.7V459.03ZM73.7 459.03H74.25V335.95H73.7V459.03ZM55.7 459.03H56.24V338.95H55.7V459.03ZM37.7 459.03H38.24V341.88H37.7V459.03ZM19.7 459.03H20.25V344.82H19.71L19.7 459.03Z" fill="#006699"/>
<path fill-rule="evenodd" clip-rule="evenodd" d="M1.51999 459.03H2.05999V347.77H1.51999V459.03Z" fill="#97D4CB"/>
<path fill-rule="evenodd" clip-rule="evenodd" d="M2.07001 348.06H126.37V347.48H2.07001V348.06ZM2.07001 399.99H126.37V399.41H2.07001V399.99ZM2.07001 429.66H126.37V429.08H2.07001V429.66Z" fill="#006699"/>
<path fill-rule="evenodd" clip-rule="evenodd" d="M568.19 346.24L440.03 326.37V460.82H568.19V346.24ZM564.61 457.24H443.61V330.54L564.61 349.3V457.24Z" fill="#006699"/>
<path fill-rule="evenodd" clip-rule="evenodd" d="M440.48 327.14H439.94V459.03H440.48V327.14ZM458.48 330.08H457.94V459.08H458.48V330.08ZM476.48 333.03H475.94V459.03H476.49L476.48 333.03ZM494.48 335.98H493.94V459.03H494.48V335.98ZM512.48 338.98H511.94V459.08H512.48V338.98ZM530.48 341.93H529.93V459.03H530.48V341.93ZM548.48 344.87H547.94V459.03H548.48V344.87Z" fill="#006699"/>
<path fill-rule="evenodd" clip-rule="evenodd" d="M566.67 347.77H566.13V459.03H566.67V347.77Z" fill="#97D4CB"/>
<path fill-rule="evenodd" clip-rule="evenodd" d="M566.11 347.48H441.87V348.06H566.11V347.48ZM566.11 399.41H441.87V399.95H566.11V399.41ZM566.11 429.08H441.87V429.66H566.11V429.08Z" fill="#006699"/>
<path fill-rule="evenodd" clip-rule="evenodd" d="M124.01 356.67H178.38V326.84H124.01V356.67ZM127.59 353.1H174.8V330.41H127.59V353.1V353.1Z" fill="#006699"/>
<path fill-rule="evenodd" clip-rule="evenodd" d="M174.8 356.67H392.29V326.84H174.8V356.67ZM178.38 353.1H388.71V330.41H178.38V353.1V353.1ZM124.01 460.95H139.87V365.85H124.01V460.95ZM127.59 457.38H136.28V369.38H127.59V457.38ZM145.78 460.95H161.64V365.85H145.78V460.95ZM149.37 457.38H158.06V369.38H149.37V457.38Z" fill="#006699"/>
<path fill-rule="evenodd" clip-rule="evenodd" d="M139.81 368.06L136.33 367.21L139.8 353.1H146.27L149.33 367.26L145.83 368.01L143.38 356.67H142.61L139.81 368.06ZM161.57 368.11L158.12 367.11L161.68 354.37L165.13 355.37L161.57 368.11ZM174.8 460.95H190.66V365.85H174.8V460.95ZM178.38 457.38H187.07V369.38H178.38V457.38ZM196.58 460.95H212.43V365.85H196.58V460.95ZM200.16 457.38H208.87V369.38H200.18L200.16 457.38Z" fill="#006699"/>
<path fill-rule="evenodd" clip-rule="evenodd" d="M190.6 368.06L187.12 367.21L190.59 353.1H197.06L200.12 367.26L196.62 368.01L194.17 356.67H193.4L190.6 368.06ZM212.36 368.11L208.91 367.11L212.47 354.37L215.92 355.37L212.36 368.11ZM125.8 378.27H176.59V377.69H125.8V378.27ZM174.8 367.63H178.38V354.88H174.8V367.63ZM376.23 460.95H392.08V365.85H376.23V460.95ZM379.81 457.38H388.5V369.38H379.81V457.38ZM354.45 460.95H370.31V365.85H354.45V460.95ZM358.03 457.38H366.72V369.38H358.03V457.38Z" fill="#006699"/>
<path fill-rule="evenodd" clip-rule="evenodd" d="M376.28 368.06L373.48 356.67H372.71L370.26 368L366.77 367.26L369.87 353.1H376.34L379.81 367.21L376.28 368.06ZM354.52 368.11L350.96 355.36L354.41 354.36L357.97 367.1L354.52 368.11ZM388.52 367.63H392.1V354.88H388.52V367.63ZM124.01 330.41H149.37V309.09H124.01V330.41ZM127.59 326.84H145.78V312.65H127.59V326.84Z" fill="#006699"/>
<path fill-rule="evenodd" clip-rule="evenodd" d="M133.92 328.95H140.05V310.58H133.92V328.95ZM134.5 328.37H139.5V311.16H134.5V328.37Z" fill="#006699"/>
<path fill-rule="evenodd" clip-rule="evenodd" d="M146.37 310.87H142.79V305.19C140.52 303.208 138.561 300.896 136.98 298.33C135.399 300.896 133.44 303.208 131.17 305.19V310.87H127.59V303.53L128.25 303C130.18 301.4 135.19 296.42 135.19 292.59H138.78C138.78 296.42 143.78 301.4 145.73 303L146.37 303.53V310.87V310.87Z" fill="#006699"/>
<path fill-rule="evenodd" clip-rule="evenodd" d="M136.69 295.95C135.385 295.948 134.109 295.559 133.025 294.832C131.941 294.105 131.096 293.073 130.599 291.866C130.101 290.66 129.972 289.332 130.229 288.053C130.485 286.773 131.116 285.598 132.04 284.676C132.965 283.754 134.142 283.128 135.422 282.875C136.703 282.622 138.03 282.755 139.235 283.256C140.44 283.758 141.47 284.605 142.193 285.692C142.917 286.778 143.302 288.055 143.3 289.36C143.292 291.109 142.592 292.783 141.354 294.018C140.116 295.253 138.439 295.947 136.69 295.95ZM136.69 286.33C136.097 286.33 135.517 286.506 135.023 286.836C134.53 287.165 134.145 287.634 133.918 288.182C133.691 288.73 133.632 289.333 133.748 289.915C133.863 290.497 134.149 291.032 134.569 291.451C134.988 291.871 135.523 292.157 136.105 292.272C136.687 292.388 137.29 292.329 137.838 292.102C138.386 291.875 138.855 291.49 139.184 290.997C139.514 290.503 139.69 289.923 139.69 289.33C139.69 288.534 139.374 287.771 138.811 287.209C138.249 286.646 137.486 286.33 136.69 286.33Z" fill="#006699"/>
<path fill-rule="evenodd" clip-rule="evenodd" d="M222.61 312.55H219.03V285.79L148.21 312.54L146.94 309.2L222.61 280.63V312.55Z" fill="#006699"/>
<path fill-rule="evenodd" clip-rule="evenodd" d="M161.65 312.87L210.93 295.3V311.86H210.66C207.74 312.1 165.21 312.79 163.41 312.86H161.65V312.87ZM210.35 296.13L165.16 312.23C173.16 312.1 206.25 311.54 210.35 311.32V296.13ZM388.5 356.67H442.87V326.84H388.5V356.67V356.67ZM392.08 353.1H439.29V330.41H392.08V353.1V353.1ZM427.02 460.95H442.87V365.85H427.02V460.95ZM430.6 457.38H439.29V369.38H430.6V457.38ZM405.24 460.95H421.09V365.85H405.24V460.95ZM408.83 457.38H417.52V369.38H408.87L408.83 457.38Z" fill="#006699"/>
<path fill-rule="evenodd" clip-rule="evenodd" d="M427.07 368.06L424.27 356.67H423.5L421.05 368L417.56 367.26L420.56 353.1H427.03L430.5 367.21L427.07 368.06ZM405.31 368.11L401.75 355.36L405.2 354.36L408.76 367.1L405.31 368.11ZM390.31 378.27H441.1V377.69H390.29L390.31 378.27ZM417.54 330.41H442.87V309.09H417.52L417.54 330.41ZM421.11 326.84H439.31V312.65H421.11V326.84V326.84Z" fill="#006699"/>
<path fill-rule="evenodd" clip-rule="evenodd" d="M426.87 328.95H433V310.58H426.87V328.95ZM427.45 328.37H432.45V311.16H427.45V328.37Z" fill="#006699"/>
<path fill-rule="evenodd" clip-rule="evenodd" d="M439.29 310.87H435.71V305.19C433.44 303.208 431.481 300.896 429.9 298.33C428.319 300.896 426.36 303.208 424.09 305.19V310.87H420.51V303.53L421.16 303C423.09 301.4 428.16 296.42 428.16 292.59H431.74C431.74 296.42 436.74 301.4 438.69 303L439.34 303.53V310.87H439.29Z" fill="#006699"/>
<path fill-rule="evenodd" clip-rule="evenodd" d="M430.19 295.95C428.885 295.946 427.611 295.555 426.528 294.827C425.445 294.099 424.602 293.066 424.106 291.86C423.61 290.653 423.482 289.326 423.74 288.046C423.998 286.767 424.629 285.593 425.554 284.672C426.479 283.752 427.655 283.126 428.936 282.874C430.216 282.622 431.543 282.756 432.747 283.257C433.952 283.759 434.981 284.606 435.704 285.693C436.427 286.779 436.812 288.055 436.81 289.36C436.805 291.111 436.105 292.789 434.863 294.025C433.622 295.26 431.941 295.953 430.19 295.95ZM430.19 286.33C429.597 286.33 429.017 286.506 428.523 286.836C428.03 287.165 427.645 287.634 427.418 288.182C427.191 288.73 427.132 289.333 427.248 289.915C427.363 290.497 427.649 291.032 428.069 291.451C428.488 291.871 429.023 292.157 429.605 292.272C430.187 292.388 430.79 292.329 431.338 292.102C431.886 291.875 432.355 291.49 432.684 290.997C433.014 290.503 433.19 289.923 433.19 289.33C433.19 288.534 432.874 287.771 432.311 287.209C431.749 286.646 430.986 286.33 430.19 286.33Z" fill="#006699"/>
<path fill-rule="evenodd" clip-rule="evenodd" d="M347.87 312.55H344.27V280.63L419.94 309.2L418.67 312.54L347.87 285.79V312.55Z" fill="#006699"/>
<path fill-rule="evenodd" clip-rule="evenodd" d="M405.23 312.87H403.48C401.67 312.87 359.14 312.15 356.22 311.87H355.96V295.3L356.34 295.44L405.24 312.87H405.23ZM356.54 311.32C360.63 311.54 393.67 312.1 401.72 312.23L356.54 296.13V311.32ZM439.29 367.63H442.87V354.88H439.29V367.63ZM219.44 380.95H236.66V367.34H219.45V380.95H219.44ZM220.02 380.37H236.07V367.95H220.02V380.37ZM219.44 459.53H237.49V393.62H219.49V459.49L219.44 459.53ZM220.02 458.95H236.87V394.2H220.02V458.95V458.95ZM274.93 380.95H292.14V367.34H274.93V380.95V380.95ZM275.51 380.37H291.56V367.95H275.51V380.37ZM274.93 459.53H292.98V393.62H274.93V459.53ZM275.51 458.95H292.39V394.2H275.51V458.95V458.95ZM244.36 460.95H267.48V365.85H244.36V460.95ZM247.94 457.38H263.94V369.38H247.94V457.38Z" fill="#006699"/>
<path fill-rule="evenodd" clip-rule="evenodd" d="M247.93 367.76L244.36 367.5L246.15 367.63L244.36 367.51C244.36 367.27 244.67 361.51 239.36 356.15L241.9 353.63C248.43 360.14 247.99 367.45 247.96 367.76H247.93ZM263.93 367.76C263.93 367.45 263.46 360.14 270 353.63L272.53 356.15C270.979 357.611 269.737 359.368 268.878 361.318C268.02 363.268 267.561 365.37 267.53 367.5L263.96 367.76H263.93Z" fill="#006699"/>
<path fill-rule="evenodd" clip-rule="evenodd" d="M299.87 460.95H322.97V365.85H299.87V460.95ZM303.45 457.38H319.45V369.38H303.45V457.38Z" fill="#006699"/>
<path fill-rule="evenodd" clip-rule="evenodd" d="M303.42 367.76L299.85 367.5L301.64 367.63L299.85 367.51C299.85 367.27 300.16 361.51 294.85 356.15L297.38 353.63C303.92 360.14 303.47 367.45 303.45 367.76H303.42ZM319.45 367.76C319.45 367.45 318.98 360.14 325.51 353.63L328.05 356.15C322.65 361.52 323.05 367.45 323.05 367.5L319.48 367.76H319.45ZM329.99 380.95H347.2V367.34H329.99V380.95ZM330.57 380.37H346.62V367.95H330.57V380.36V380.37ZM329.99 459.53H347.99V393.62H329.99V459.53ZM330.57 458.95H347.45V394.2H330.57V458.95V458.95ZM361.78 328.66H358.19V319.08L283.94 288.78L208.13 319.05V328.62H204.55V316.62L283.96 284.87L361.78 316.63V328.66Z" fill="#006699"/>
<path fill-rule="evenodd" clip-rule="evenodd" d="M335.99 320.03H231.33L283.95 299.73H284.06L335.99 320.03ZM234.44 319.45H332.87L283.87 300.35L234.36 319.45H234.44Z" fill="#006699"/>
<path fill-rule="evenodd" clip-rule="evenodd" d="M347.87 314.66L283.56 288.74L219.03 314.65V272.53H347.87V314.66ZM222.61 276.09V309.37L283.55 284.89L344.27 309.36V276.09H222.61ZM327.45 218.02L283.87 200.46L240.17 218.02V188.4H327.44V218.02H327.45ZM243.76 192.02V212.78L283.87 196.62L323.87 212.73V191.95L243.76 192.02Z" fill="#006699"/>
<path fill-rule="evenodd" clip-rule="evenodd" d="M341.15 230.7H226.48V219.95L284.39 196.79L341.15 219.95V230.7ZM230.06 227.13H337.57V222.32L284.38 200.61L230.06 222.33V227.13V227.13Z" fill="#006699"/>
<path fill-rule="evenodd" clip-rule="evenodd" d="M322.07 222.79H245.54L284.02 207.95H284.13L322.07 222.76V222.79ZM248.65 222.21H318.99L283.99 208.57L248.65 222.21ZM236.75 276.09H330.87V227.09H236.75V276.09ZM240.33 272.52H327.33V230.7H240.33V272.52Z" fill="#006699"/>
<path fill-rule="evenodd" clip-rule="evenodd" d="M283.87 264.46C281.101 264.46 278.394 263.639 276.092 262.101C273.79 260.562 271.995 258.376 270.936 255.818C269.876 253.259 269.599 250.444 270.139 247.729C270.679 245.013 272.013 242.518 273.97 240.56C275.928 238.603 278.423 237.269 281.139 236.729C283.854 236.189 286.669 236.466 289.228 237.526C291.786 238.585 293.972 240.38 295.511 242.682C297.049 244.984 297.87 247.691 297.87 250.46C297.87 254.173 296.395 257.734 293.77 260.359C291.144 262.985 287.583 264.46 283.87 264.46V264.46ZM283.87 239.52C281.694 239.52 279.568 240.165 277.759 241.374C275.95 242.582 274.54 244.3 273.707 246.31C272.875 248.32 272.657 250.532 273.081 252.666C273.506 254.8 274.553 256.76 276.092 258.298C277.63 259.837 279.59 260.884 281.724 261.309C283.858 261.733 286.07 261.515 288.08 260.683C290.089 259.85 291.807 258.44 293.016 256.631C294.225 254.822 294.87 252.696 294.87 250.52C294.87 247.603 293.711 244.805 291.648 242.742C289.585 240.679 286.787 239.52 283.87 239.52Z" fill="#006699"/>
<path fill-rule="evenodd" clip-rule="evenodd" d="M267.07 267.19H300.56V233.8H267.07V267.19ZM270.65 263.62H296.98V237.37H270.65V263.62Z" fill="#006699"/>
<path fill-rule="evenodd" clip-rule="evenodd" d="M297.07 181.36H270.56V142.48C270.655 139.028 272.093 135.749 274.568 133.34C277.044 130.932 280.361 129.584 283.815 129.584C287.269 129.584 290.586 130.932 293.062 133.34C295.537 135.749 296.975 139.028 297.07 142.48V181.36ZM274.15 177.79H293.49V142.48C293.49 139.915 292.471 137.456 290.658 135.642C288.844 133.829 286.385 132.81 283.82 132.81C281.255 132.81 278.796 133.829 276.982 135.642C275.169 137.456 274.15 139.915 274.15 142.48V177.79Z" fill="#006699"/>
<path fill-rule="evenodd" clip-rule="evenodd" d="M244.75 125.04H322.87V109.45H244.75V125.04ZM248.33 121.47H319.33V113.02H248.33V121.47Z" fill="#006699"/>
<path fill-rule="evenodd" clip-rule="evenodd" d="M248.48 191.95H319.15V121.45H248.48V191.95ZM252.06 188.38H315.57V125.04H252.06V188.4V188.38ZM319.15 111.32L315.57 111.11C315.57 110.88 316.8 88.11 307.05 77.77C305.555 76.154 303.73 74.8771 301.7 74.025C299.67 73.1729 297.481 72.7654 295.28 72.83H272.35C270.148 72.7634 267.957 73.1709 265.927 74.025C263.896 74.879 262.072 76.1596 260.58 77.78C250.82 88.1 252.04 110.88 252.06 111.11L248.48 111.32C248.43 110.32 247.16 86.76 257.98 75.32C259.809 73.349 262.036 71.7887 264.513 70.7423C266.991 69.6959 269.662 69.1873 272.35 69.25H295.28C297.97 69.1858 300.643 69.6938 303.122 70.7402C305.601 71.7866 307.83 73.3477 309.66 75.32C320.47 86.75 319.21 110.32 319.15 111.32" fill="#006699"/>
<path fill-rule="evenodd" clip-rule="evenodd" d="M289.58 72.8499H271.87L273.53 70.1399C273.58 70.0599 279.3 59.4999 279.3 11.8999H282.88C282.88 59.3399 290.83 69.8299 290.88 69.8999L293.2 72.7999H289.5L289.58 72.8499ZM277.74 69.2799H286.55C285.09 66.0799 282.99 59.8199 281.43 48.4499C280.3 59.9499 278.77 66.1699 277.74 69.2799V69.2799Z" fill="#006699"/>
<path fill-rule="evenodd" clip-rule="evenodd" d="M281.13 13.68C279.778 13.676 278.458 13.2715 277.335 12.5175C276.213 11.7635 275.34 10.6939 274.825 9.4437C274.31 8.19351 274.178 6.81885 274.444 5.49334C274.71 4.16783 275.363 2.95093 276.32 1.99634C277.278 1.04175 278.497 0.392282 279.823 0.129976C281.149 -0.13233 282.523 0.0042879 283.772 0.522574C285.021 1.04086 286.088 1.91757 286.839 3.04196C287.589 4.16635 287.99 5.488 287.99 6.83997C287.989 7.73953 287.81 8.63002 287.465 9.4606C287.119 10.2912 286.614 11.0456 285.977 11.6807C285.34 12.3159 284.584 12.8193 283.752 13.1624C282.921 13.5054 282.03 13.6813 281.13 13.68V13.68ZM281.13 3.57997C280.483 3.58195 279.852 3.77567 279.315 4.13663C278.778 4.49758 278.361 5.00957 278.115 5.60784C277.869 6.2061 277.807 6.86378 277.935 7.49771C278.063 8.13164 278.376 8.71334 278.835 9.16926C279.294 9.62517 279.877 9.93483 280.512 10.0591C281.147 10.1833 281.804 10.1165 282.401 9.86721C282.997 9.61788 283.507 9.1972 283.864 8.65836C284.222 8.11952 284.412 7.48671 284.41 6.83997C284.409 6.41055 284.323 5.98559 284.157 5.58936C283.992 5.19312 283.75 4.83338 283.445 4.53066C283.141 4.22794 282.779 3.98818 282.382 3.82506C281.985 3.66194 281.559 3.57866 281.13 3.57997V3.57997ZM125.8 460.95H441.08V457.39H125.8V460.95Z" fill="#006699"/>
</svg>
