<svg width="15" height="15" viewBox="0 0 15 15" fill="none" xmlns="http://www.w3.org/2000/svg">
<path d="M14.8428 14.057L10.8087 10.0225C11.7258 8.92644 12.2279 7.54253 12.2269 6.11338C12.2269 2.74407 9.48453 0 6.11345 0C2.74237 0 0 2.74407 0 6.11338C0 9.48269 2.74411 12.2268 6.11345 12.2268C7.54262 12.2278 8.92654 11.7257 10.0226 10.8085L14.0571 14.843C14.1619 14.9447 14.3024 15.0011 14.4484 15C14.5944 14.9989 14.7341 14.9404 14.8373 14.8371C14.9405 14.7339 14.999 14.5942 15 14.4482C15.001 14.3022 14.9446 14.1617 14.8428 14.057ZM1.11154 6.11338C1.11154 3.35541 3.3551 1.11152 6.11345 1.11152C8.8718 1.11152 11.1154 3.35541 11.1154 6.11338C11.1154 8.87135 8.8718 11.1152 6.11345 11.1152C3.3551 11.1152 1.11154 8.87135 1.11154 6.11338Z" fill="white"/>
</svg>
